# xmcd
#
# Track frame offsets:
#	150
#	28422
#	49467
#	68510
#	96156
#	110774
#	146986
#	172020
#	197152
#	213097
#	244145
#	275275
#	313489
#	335511
#
# Disc length: 4651 seconds
#
# Revision: 1
# Processed by: cddbd v1.5PL3 Copyright (c) Steve Scherf et al.
# Submitted via: audiograbber 1.82.01
#
DISCID=e312290e
DTITLE=TIMO MAAS - The Best Explosive Hits
DYEAR=2004
DGENRE=!!!
TTITLE0=Der Schieber
TTITLE1=Help Me (feat. Kelis)
TTITLE2=Bad Days
TTITLE3=Dooms Night
TTITLE4=Ubik: The Brekz (feat. Martin Bettinghaus)
TTITLE5=Suddent Journey (Leon Alexsander Remix)
TTITLE6=Flash
TTITLE7=Shifter (feat. MC Chickaboo)
TTITLE8=To Get Down
TTITLE9=Drive By
TTITLE10=Eclipse
TTITLE11=City Borealis
TTITLE12=Riding On A Storm
TTITLE13=Hash Driven
EXTD=
EXTT0=
EXTT1=
EXTT2=
EXTT3=
EXTT4=
EXTT5=
EXTT6=
EXTT7=
EXTT8=
EXTT9=
EXTT10=
EXTT11=
EXTT12=
EXTT13=
PLAYORDER=
